<svg width="50" height="56" viewBox="0 0 50 56" fill="none" xmlns="http://www.w3.org/2000/svg">
<path d="M0.950012 55.75H49.05V46.5L34.1811 40.5882C33.4541 40.2389 33.018 39.5403 33.018 38.7718V36.606C33.018 36.1169 33.1634 35.6279 33.5268 35.2785C35.9258 32.6936 37.5252 28.851 37.9613 27.7332C38.034 27.5236 38.1794 27.314 38.3248 27.1742C38.761 26.8249 39.488 25.9167 39.9969 23.7509C40.433 21.6549 39.6334 20.4672 39.1245 19.9083C38.8337 19.6289 38.6883 19.2795 38.6883 18.9302V9.91769C37.7433 4.74771 34.5446 2.30245 31.3459 1.18462C27.9292 -0.0729466 21.8227 -0.0729468 18.3332 1.25448C15.28 2.44218 12.154 4.81757 11.2816 9.91769V18.9302C11.2816 19.2795 11.1363 19.6289 10.8455 19.9083C10.3366 20.4672 9.53692 21.6549 9.9731 23.7509C10.4093 25.9167 11.2089 26.8249 11.6451 27.1742C11.7905 27.314 11.9359 27.5236 12.0086 27.7332C12.4448 28.9209 14.0441 32.6237 16.3704 35.2087C16.7339 35.6279 16.952 36.1868 16.952 36.7457V38.632C16.952 39.5403 16.4431 40.3088 15.5708 40.728L0.950012 46.5V55.75Z" fill="black"/>
</svg>
