<svg width="40" height="40" viewBox="0 0 40 40" fill="none" xmlns="http://www.w3.org/2000/svg">
<path d="M38.9324 1.48438L23.4488 23.8362L21.8349 26.166V33.9895L27.7185 28.2393L24.7136 22.6302" fill="#6FCF97"/>
<path d="M16.3676 24.4934L5 21.0156L39.2188 0.78125V31.4844L22.1094 26.25" fill="#6FCF97"/>
<path d="M21.8349 33.9895L16.6682 24.5854L38.9324 1.48438L22.315 25.4728L21.8349 33.9895Z" fill="#27AE60"/>
<path d="M39.6059 0.10268C39.3622 -0.0363826 39.0625 -0.0340388 38.8211 0.108774L24.5044 8.57471C24.133 8.79432 24.0099 9.27338 24.2295 9.64479C24.4491 10.0161 24.9281 10.1392 25.2996 9.91963L35.5716 3.84549L16.4384 23.6981L6.92211 20.7867L19.3412 13.4429C19.7127 13.2232 19.8357 12.7442 19.6161 12.3728C19.3966 12.0014 18.9174 11.8782 18.546 12.0979L4.60234 20.3432C4.33594 20.5007 4.18758 20.8007 4.22422 21.1081C4.26086 21.4155 4.47547 21.6722 4.77141 21.7628L16.1362 25.2396L21.15 34.3657C21.1552 34.3751 21.1606 34.3831 21.1662 34.3902C21.2498 34.5297 21.3752 34.6437 21.5316 34.7095C21.6295 34.7507 21.7324 34.7707 21.8346 34.7707C22.0348 34.7707 22.232 34.6937 22.3808 34.5482L28.1459 28.9138L38.9902 32.2314C39.0652 32.2543 39.1421 32.2657 39.2187 32.2657C39.384 32.2657 39.5473 32.2132 39.6834 32.1124C39.8825 31.9651 40 31.7321 40 31.4844V0.781274C40 0.500727 39.8495 0.241664 39.6059 0.10268ZM32.78 8.99378L21.1926 25.7211C21.1021 25.8518 21.0536 26.007 21.0536 26.166V30.9449L17.6299 24.7133L32.78 8.99378ZM22.6161 32.1335V27.2221L26.4434 28.393L22.6161 32.1335ZM23.086 25.7318L38.4375 3.57065V30.4284L23.086 25.7318Z" fill="#219653"/>
<path d="M12.8456 27.1545C12.5404 26.8494 12.0459 26.8494 11.7406 27.1545L4.4475 34.4476C4.14242 34.7527 4.14242 35.2474 4.4475 35.5525C4.60015 35.705 4.80008 35.7813 5 35.7813C5.19992 35.7813 5.39984 35.705 5.55242 35.5524L12.8456 28.2593C13.1506 27.9543 13.1506 27.4596 12.8456 27.1545Z" fill="#F2994A"/>
<path d="M2.02571 36.8694L0.228831 38.6663C-0.0762466 38.9714 -0.0762466 39.4661 0.228831 39.7713C0.38141 39.9238 0.581331 40 0.781253 40C0.981175 40 1.1811 39.9237 1.33368 39.7712L3.13055 37.9743C3.43563 37.6692 3.43563 37.1745 3.13055 36.8694C2.82539 36.5644 2.33086 36.5644 2.02571 36.8694Z" fill="#F2994A"/>
<path d="M10.5922 38.3914C10.3859 38.3914 10.1852 38.475 10.0398 38.6203C9.89453 38.7656 9.81094 38.9664 9.81094 39.1727C9.81094 39.3781 9.89445 39.5797 10.0398 39.725C10.1852 39.8703 10.3867 39.9539 10.5922 39.9539C10.7977 39.9539 10.9992 39.8703 11.1445 39.725C11.2898 39.5797 11.3734 39.3781 11.3734 39.1727C11.3734 38.9664 11.2898 38.7656 11.1445 38.6203C10.9992 38.475 10.7977 38.3914 10.5922 38.3914Z" fill="#F2994A"/>
<path d="M15.8523 32.8074L11.9893 36.6703C11.6842 36.9754 11.6842 37.4701 11.9893 37.7752C12.1419 37.9277 12.3418 38.004 12.5417 38.004C12.7416 38.004 12.9416 37.9277 13.0941 37.7752L16.9571 33.9123C17.2622 33.6072 17.2622 33.1125 16.9571 32.8074C16.6522 32.5023 16.1577 32.5023 15.8523 32.8074Z" fill="#F2994A"/>
<path d="M29.1846 32.5109L25.3111 36.3843C25.006 36.6894 25.006 37.1841 25.3111 37.4892C25.4637 37.6417 25.6636 37.718 25.8635 37.718C26.0635 37.718 26.2634 37.6417 26.4159 37.4892L30.2894 33.6158C30.5945 33.3107 30.5945 32.816 30.2894 32.5109C29.9842 32.2059 29.4897 32.2059 29.1846 32.5109Z" fill="#F2994A"/>
<path d="M21.5961 11.9828C21.8016 11.9828 22.0031 11.9 22.1484 11.7539C22.2937 11.6086 22.3773 11.4078 22.3773 11.2023C22.3773 10.9961 22.2938 10.7945 22.1484 10.6492C22.0031 10.5039 21.8016 10.4203 21.5961 10.4203C21.3906 10.4203 21.1891 10.5039 21.0438 10.6492C20.8985 10.7945 20.8148 10.9961 20.8148 11.2023C20.8148 11.4078 20.8984 11.6086 21.0438 11.7539C21.1891 11.9 21.3906 11.9828 21.5961 11.9828Z" fill="#219653"/>
</svg>
